<svg width="632" height="632" viewBox="0 0 632 632" fill="none" xmlns="http://www.w3.org/2000/svg">
<path d="M268.143 161H178.857C168.995 161 161 168.995 161 178.857V268.143C161 278.005 168.995 286 178.857 286H268.143C278.005 286 286 278.005 286 268.143V178.857C286 168.995 278.005 161 268.143 161Z" stroke="#7C86FF" stroke-width="20" stroke-linecap="round" stroke-linejoin="round"/>
<path d="M453.143 161H363.857C353.995 161 346 168.995 346 178.857V268.143C346 278.005 353.995 286 363.857 286H453.143C463.005 286 471 278.005 471 268.143V178.857C471 168.995 463.005 161 453.143 161Z" stroke="#7C86FF" stroke-width="20" stroke-linecap="round" stroke-linejoin="round"/>
<path d="M268.143 346H178.857C168.995 346 161 353.995 161 363.857V453.143C161 463.005 168.995 471 178.857 471H268.143C278.005 471 286 463.005 286 453.143V363.857C286 353.995 278.005 346 268.143 346Z" stroke="#7C86FF" stroke-width="20" stroke-linecap="round" stroke-linejoin="round"/>
<path d="M453.143 346H363.857C353.995 346 346 353.995 346 363.857V453.143C346 463.005 353.995 471 363.857 471H453.143C463.005 471 471 463.005 471 453.143V363.857C471 353.995 463.005 346 453.143 346Z" stroke="#7C86FF" stroke-width="20" stroke-linecap="round" stroke-linejoin="round"/>
</svg>
